<svg width="160" height="160" viewBox="0 0 160 160" fill="none" xmlns="http://www.w3.org/2000/svg">
    <g clip-path="url(#clip0)">
        <mask id="mask0" mask-type="alpha" maskUnits="userSpaceOnUse" x="1" y="0" width="67" height="49">
            <path d="M29.8819 5.28178C17.1225 7.73603 7.14159 17.7701 4.70349 30.6032C3.56825 36.5741 2.63873 42.573 1.91492 48.5925C14.5244 47.2159 30.047 43.5333 43.2508 34.4569C54.2248 26.9129 60.0483 14.0517 67.1568 0.845749C54.6692 1.43313 42.2121 2.91181 29.8819 5.28178Z" fill="white"/>
        </mask>
        <g mask="url(#mask0)">
            <path fill-rule="evenodd" clip-rule="evenodd" d="M29.8819 5.28178C17.1225 7.73603 7.14159 17.7701 4.70349 30.6032C3.56825 36.5741 2.63873 42.573 1.91492 48.5925C14.5244 47.2159 30.047 43.5333 43.2508 34.4569C54.2248 26.9129 60.0483 14.0517 67.1568 0.845749C54.6692 1.43313 42.2121 2.91181 29.8819 5.28178Z" fill="url(#paint0_linear)"/>
        </g>
        <mask id="mask1" mask-type="alpha" maskUnits="userSpaceOnUse" x="0" y="0" width="145" height="115">
            <path d="M79.0095 0.554611C74.3416 0.562273 69.6736 0.697627 65.0083 0.955565C58.1486 13.7095 52.5079 26.1186 41.9073 33.4047C29.1962 42.1414 14.273 45.7194 2.10286 47.0704C-0.716191 69.4293 -0.698413 92.0564 2.15873 114.408C13.7092 98.3567 28.7543 91.2417 39.266 89.8115C75.8984 84.8366 87.4235 60.1026 103.944 33.7367C113.041 19.2156 128.978 13.9163 144.028 12.55C139.891 8.92356 134.801 6.36461 129.168 5.28178C112.94 2.16353 96.4902 0.585257 80.0381 0.554611H79.0095Z" fill="white"/>
        </mask>
        <g mask="url(#mask1)">
            <path fill-rule="evenodd" clip-rule="evenodd" d="M79.0095 0.554611C74.3416 0.562273 69.6736 0.697627 65.0083 0.955565C58.1486 13.7095 52.5079 26.1186 41.9073 33.4047C29.1962 42.1414 14.273 45.7194 2.10286 47.0704C-0.716191 69.4293 -0.698413 92.0564 2.15873 114.408C13.7092 98.3567 28.7543 91.2417 39.266 89.8115C75.8984 84.8366 87.4235 60.1026 103.944 33.7367C113.041 19.2156 128.978 13.9163 144.028 12.55C139.891 8.92356 134.801 6.36461 129.168 5.28178C112.94 2.16353 96.4902 0.585257 80.0381 0.554611H79.0095Z" fill="url(#paint1_linear)"/>
        </g>
        <mask id="mask2" mask-type="alpha" maskUnits="userSpaceOnUse" x="0" y="11" width="160" height="145">
            <path d="M103.944 32.4087C87.4235 58.7772 79.5225 77.9821 42.8927 82.9621C31.9822 84.4408 12.7365 85.0077 0.868571 102.034C1.63556 111.55 2.91556 121.032 4.70349 130.443C7.10857 143.113 16.8711 153.052 29.3994 155.665C31.6216 136.738 38.8038 119.758 58.7352 107.732C88.4343 89.8115 100.312 100.762 131.002 91.8035C142.857 88.3431 152.056 82.3288 159.012 76.0157C158.756 60.8049 157.199 45.6096 154.344 30.6032C152.863 22.7935 148.589 16.0233 142.593 11.365C127.972 12.9357 112.752 18.3498 103.944 32.4087Z" fill="white"/>
        </mask>
        <g mask="url(#mask2)">
            <path fill-rule="evenodd" clip-rule="evenodd" d="M103.944 32.4087C87.4235 58.7772 79.5225 77.9821 42.8927 82.9621C31.9822 84.4408 12.7365 85.0077 0.868571 102.034C1.63556 111.55 2.91556 121.032 4.70349 130.443C7.10857 143.113 16.8711 153.052 29.3994 155.665C31.6216 136.738 38.8038 119.758 58.7352 107.732C88.4343 89.8115 100.312 100.762 131.002 91.8035C142.857 88.3431 152.056 82.3288 159.012 76.0157C158.756 60.8049 157.199 45.6096 154.344 30.6032C152.863 22.7935 148.589 16.0233 142.593 11.365C127.972 12.9357 112.752 18.3498 103.944 32.4087Z" fill="url(#paint2_linear)"/>
        </g>
        <mask id="mask3" mask-type="alpha" maskUnits="userSpaceOnUse" x="90" y="119" width="67" height="42">
            <path d="M126.024 123.042C102.499 131.687 93.6178 150.435 90.4889 160.262C103.446 159.721 116.373 158.221 129.168 155.762C141.93 153.308 151.909 143.274 154.344 130.443C155.043 126.768 155.665 123.083 156.208 119.39C155.126 119.367 154.024 119.354 152.907 119.354C143.86 119.354 133.801 120.179 126.024 123.042Z" fill="white"/>
        </mask>
        <g mask="url(#mask3)">
            <path fill-rule="evenodd" clip-rule="evenodd" d="M126.024 123.042C102.499 131.687 93.6178 150.435 90.4889 160.262C103.446 159.721 116.373 158.221 129.168 155.762C141.93 153.308 151.909 143.274 154.344 130.443C155.043 126.768 155.665 123.083 156.208 119.39C155.126 119.367 154.024 119.354 152.907 119.354C143.86 119.354 133.801 120.179 126.024 123.042Z" fill="url(#paint3_linear)"/>
        </g>
        <mask id="mask4" mask-type="alpha" maskUnits="userSpaceOnUse" x="27" y="74" width="133" height="87">
            <path d="M130.596 90.8152C99.4641 99.9018 87.4159 88.7951 57.2876 106.971C37.1962 119.091 29.8743 136.177 27.5708 155.228C28.3302 155.433 29.0997 155.611 29.8819 155.762C46.1079 158.88 62.5524 160.459 79.0019 160.489H80.0483C84.6273 160.482 89.2064 160.351 93.7803 160.104C96.8127 150.698 105.305 133 127.581 124.809C135.784 121.793 146.644 121.15 155.916 121.323C158.004 107.803 159.05 94.1633 159.05 80.5232C159.05 78.6206 159.03 76.718 158.989 74.8154C151.937 81.2178 142.611 87.3037 130.596 90.8152Z" fill="white"/>
        </mask>
        <g mask="url(#mask4)">
            <path fill-rule="evenodd" clip-rule="evenodd" d="M130.596 90.8152C99.4641 99.9018 87.4159 88.7951 57.2876 106.971C37.1962 119.091 29.8743 136.177 27.5708 155.228C28.3302 155.433 29.0997 155.611 29.8819 155.762C46.1079 158.88 62.5524 160.459 79.0019 160.489H80.0483C84.6273 160.482 89.2064 160.351 93.7803 160.104C96.8127 150.698 105.305 133 127.581 124.809C135.784 121.793 146.644 121.15 155.916 121.323C158.004 107.803 159.05 94.1633 159.05 80.5232C159.05 78.6206 159.03 76.718 158.989 74.8154C151.937 81.2178 142.611 87.3037 130.596 90.8152Z" fill="url(#paint4_linear)"/>
        </g>
        <path d="M29.375 44.275C30.225 44.275 31.0083 44.0917 31.725 43.725C32.4583 43.3583 33.1167 42.8167 33.7 42.1L36.525 44.875C35.7083 45.8917 34.6333 46.7083 33.3 47.325C31.9833 47.9417 30.625 48.25 29.225 48.25C27.9083 48.25 26.6667 48.0167 25.5 47.55C24.35 47.0833 23.3583 46.45 22.525 45.65C21.6917 44.85 21.0333 43.9 20.55 42.8C20.0667 41.7 19.825 40.5167 19.825 39.25C19.825 37.9833 20.0667 36.8 20.55 35.7C21.0333 34.5833 21.6917 33.625 22.525 32.825C23.375 32.025 24.375 31.3917 25.525 30.925C26.675 30.4583 27.9083 30.225 29.225 30.225C29.9417 30.225 30.6583 30.3083 31.375 30.475C32.0917 30.6417 32.775 30.875 33.425 31.175C34.075 31.4583 34.675 31.8167 35.225 32.25C35.775 32.6667 36.25 33.1333 36.65 33.65L33.75 36.5C33.1333 35.7333 32.4417 35.1583 31.675 34.775C30.925 34.375 30.1083 34.175 29.225 34.175C28.525 34.175 27.8667 34.3083 27.25 34.575C26.65 34.825 26.125 35.175 25.675 35.625C25.2417 36.075 24.8917 36.6167 24.625 37.25C24.375 37.8667 24.25 38.5333 24.25 39.25C24.25 39.9667 24.375 40.6333 24.625 41.25C24.8917 41.85 25.25 42.375 25.7 42.825C26.1667 43.275 26.7083 43.6333 27.325 43.9C27.9583 44.15 28.6417 44.275 29.375 44.275ZM55.9322 39.25C55.9322 40.5 55.6906 41.6833 55.2072 42.8C54.7239 43.9 54.0656 44.8583 53.2322 45.675C52.3989 46.475 51.4072 47.1083 50.2572 47.575C49.1072 48.0417 47.8822 48.275 46.5822 48.275C45.2822 48.275 44.0572 48.0417 42.9072 47.575C41.7572 47.1083 40.7656 46.475 39.9322 45.675C39.0989 44.8583 38.4406 43.9 37.9572 42.8C37.4739 41.6833 37.2322 40.5 37.2322 39.25C37.2322 38 37.4739 36.825 37.9572 35.725C38.4406 34.6083 39.0989 33.65 39.9322 32.85C40.7656 32.0333 41.7572 31.3917 42.9072 30.925C44.0572 30.4583 45.2822 30.225 46.5822 30.225C47.8822 30.225 49.1072 30.4583 50.2572 30.925C51.4072 31.3917 52.3989 32.0333 53.2322 32.85C54.0656 33.65 54.7239 34.6083 55.2072 35.725C55.6906 36.825 55.9322 38 55.9322 39.25ZM51.5072 39.25C51.5072 38.5333 51.3822 37.8667 51.1322 37.25C50.8822 36.6167 50.5322 36.075 50.0822 35.625C49.6489 35.175 49.1322 34.825 48.5322 34.575C47.9322 34.3083 47.2822 34.175 46.5822 34.175C45.8822 34.175 45.2322 34.3083 44.6322 34.575C44.0322 34.825 43.5072 35.175 43.0572 35.625C42.6239 36.075 42.2822 36.6167 42.0322 37.25C41.7822 37.8667 41.6572 38.5333 41.6572 39.25C41.6572 39.9667 41.7822 40.6417 42.0322 41.275C42.2822 41.8917 42.6239 42.425 43.0572 42.875C43.5072 43.325 44.0322 43.6833 44.6322 43.95C45.2322 44.2 45.8822 44.325 46.5822 44.325C47.2822 44.325 47.9322 44.2 48.5322 43.95C49.1322 43.6833 49.6489 43.325 50.0822 42.875C50.5322 42.425 50.8822 41.8917 51.1322 41.275C51.3822 40.6417 51.5072 39.9667 51.5072 39.25ZM76.2936 39.25C76.2936 40.5 76.0519 41.6833 75.5686 42.8C75.0852 43.9 74.4269 44.8583 73.5936 45.675C72.7602 46.475 71.7686 47.1083 70.6186 47.575C69.4686 48.0417 68.2436 48.275 66.9436 48.275C65.6436 48.275 64.4186 48.0417 63.2686 47.575C62.1186 47.1083 61.1269 46.475 60.2936 45.675C59.4602 44.8583 58.8019 43.9 58.3186 42.8C57.8352 41.6833 57.5936 40.5 57.5936 39.25C57.5936 38 57.8352 36.825 58.3186 35.725C58.8019 34.6083 59.4602 33.65 60.2936 32.85C61.1269 32.0333 62.1186 31.3917 63.2686 30.925C64.4186 30.4583 65.6436 30.225 66.9436 30.225C68.2436 30.225 69.4686 30.4583 70.6186 30.925C71.7686 31.3917 72.7602 32.0333 73.5936 32.85C74.4269 33.65 75.0852 34.6083 75.5686 35.725C76.0519 36.825 76.2936 38 76.2936 39.25ZM71.8686 39.25C71.8686 38.5333 71.7436 37.8667 71.4936 37.25C71.2436 36.6167 70.8936 36.075 70.4436 35.625C70.0102 35.175 69.4936 34.825 68.8936 34.575C68.2936 34.3083 67.6436 34.175 66.9436 34.175C66.2436 34.175 65.5936 34.3083 64.9936 34.575C64.3936 34.825 63.8686 35.175 63.4186 35.625C62.9852 36.075 62.6436 36.6167 62.3936 37.25C62.1436 37.8667 62.0186 38.5333 62.0186 39.25C62.0186 39.9667 62.1436 40.6417 62.3936 41.275C62.6436 41.8917 62.9852 42.425 63.4186 42.875C63.8686 43.325 64.3936 43.6833 64.9936 43.95C65.5936 44.2 66.2436 44.325 66.9436 44.325C67.6436 44.325 68.2936 44.2 68.8936 43.95C69.4936 43.6833 70.0102 43.325 70.4436 42.875C70.8936 42.425 71.2436 41.8917 71.4936 41.275C71.7436 40.6417 71.8686 39.9667 71.8686 39.25ZM78.5799 48V30.5H82.8799V38.15L89.9549 30.5H95.1549L87.0549 38.725L95.6049 48H89.9049L82.8799 39.975V48H78.5799ZM96.7928 48V30.5H101.093V48H96.7928ZM103.995 48V30.5H117.795V34.225H108.295V37.375H114.57V40.975H108.295V44.275H117.895V48H103.995ZM118.976 45.325L121.376 42.2C122.426 43.05 123.409 43.6667 124.326 44.05C125.242 44.4333 126.201 44.625 127.201 44.625C128.184 44.625 128.951 44.475 129.501 44.175C130.067 43.875 130.351 43.4583 130.351 42.925C130.351 42.4417 130.159 42.0667 129.776 41.8C129.409 41.5333 128.792 41.325 127.926 41.175L124.076 40.5C122.659 40.25 121.567 39.7083 120.801 38.875C120.034 38.0417 119.651 36.9833 119.651 35.7C119.651 34.0167 120.284 32.6917 121.551 31.725C122.834 30.7417 124.592 30.25 126.826 30.25C128.126 30.25 129.434 30.475 130.751 30.925C132.084 31.375 133.226 31.9833 134.176 32.75L131.901 35.925C130.984 35.2083 130.084 34.6833 129.201 34.35C128.334 34.0167 127.442 33.85 126.526 33.85C125.659 33.85 124.967 33.9917 124.451 34.275C123.951 34.5417 123.701 34.9083 123.701 35.375C123.701 35.8083 123.859 36.15 124.176 36.4C124.509 36.6333 125.042 36.8083 125.776 36.925L129.401 37.525C131.084 37.7917 132.359 38.35 133.226 39.2C134.109 40.05 134.551 41.15 134.551 42.5C134.551 44.2667 133.859 45.6667 132.476 46.7C131.109 47.7333 129.242 48.25 126.876 48.25C125.476 48.25 124.076 47.9917 122.676 47.475C121.292 46.9583 120.059 46.2417 118.976 45.325ZM20.044 72V59.4H26.488C27.136 59.4 27.73 59.502 28.27 59.706C28.822 59.898 29.29 60.174 29.674 60.534C30.07 60.882 30.376 61.302 30.592 61.794C30.82 62.286 30.934 62.826 30.934 63.414C30.934 64.206 30.718 64.914 30.286 65.538C29.854 66.162 29.284 66.636 28.576 66.96L31.33 72H27.874L25.498 67.41H23.14V72H20.044ZM26.2 62.046H23.14V64.89H26.2C26.68 64.89 27.064 64.758 27.352 64.494C27.652 64.23 27.802 63.888 27.802 63.468C27.802 63.048 27.652 62.706 27.352 62.442C27.064 62.178 26.68 62.046 26.2 62.046ZM40.5655 70.74C39.9655 71.244 39.3475 71.61 38.7115 71.838C38.0875 72.066 37.3795 72.18 36.5875 72.18C35.8675 72.18 35.1895 72.054 34.5535 71.802C33.9175 71.55 33.3655 71.202 32.8975 70.758C32.4415 70.314 32.0755 69.792 31.7995 69.192C31.5355 68.58 31.4035 67.932 31.4035 67.248C31.4035 66.564 31.5295 65.922 31.7815 65.322C32.0455 64.71 32.3995 64.182 32.8435 63.738C33.2875 63.294 33.8095 62.946 34.4095 62.694C35.0215 62.442 35.6755 62.316 36.3715 62.316C37.0675 62.316 37.7095 62.448 38.2975 62.712C38.8855 62.976 39.3895 63.336 39.8095 63.792C40.2415 64.248 40.5775 64.8 40.8175 65.448C41.0575 66.084 41.1775 66.774 41.1775 67.518V68.238H34.3915C34.5835 68.682 34.8835 69.048 35.2915 69.336C35.6995 69.612 36.1795 69.75 36.7315 69.75C37.1275 69.75 37.4875 69.69 37.8115 69.57C38.1355 69.438 38.4115 69.258 38.6395 69.03L40.5655 70.74ZM36.3175 64.692C35.8375 64.692 35.4235 64.824 35.0755 65.088C34.7275 65.352 34.4815 65.724 34.3375 66.204H38.3155C38.1595 65.748 37.9015 65.382 37.5415 65.106C37.1935 64.83 36.7855 64.692 36.3175 64.692ZM47.0385 72.036C46.3665 72.036 45.7305 71.91 45.1305 71.658C44.5425 71.406 44.0325 71.064 43.6005 70.632C43.1685 70.188 42.8265 69.672 42.5745 69.084C42.3225 68.484 42.1965 67.848 42.1965 67.176C42.1965 66.504 42.3225 65.874 42.5745 65.286C42.8385 64.698 43.1925 64.188 43.6365 63.756C44.0805 63.324 44.6025 62.982 45.2025 62.73C45.8145 62.478 46.4625 62.352 47.1465 62.352C47.5785 62.352 47.9985 62.406 48.4065 62.514C48.8145 62.622 49.1925 62.778 49.5405 62.982V62.478H52.4205V71.91C52.4205 73.194 51.9945 74.178 51.1425 74.862C50.2905 75.558 49.0725 75.906 47.4885 75.906C46.7325 75.906 46.0065 75.834 45.3105 75.69C44.6145 75.546 43.9845 75.342 43.4205 75.078L44.3925 72.81C44.9085 73.05 45.4185 73.23 45.9225 73.35C46.4265 73.47 46.9305 73.53 47.4345 73.53C48.1185 73.53 48.6345 73.392 48.9825 73.116C49.3305 72.84 49.5045 72.426 49.5045 71.874V71.28C49.1445 71.52 48.7545 71.706 48.3345 71.838C47.9145 71.97 47.4825 72.036 47.0385 72.036ZM45.0585 67.176C45.0585 67.86 45.2985 68.436 45.7785 68.904C46.2585 69.36 46.8465 69.588 47.5425 69.588C47.9385 69.588 48.2985 69.528 48.6225 69.408C48.9585 69.288 49.2525 69.114 49.5045 68.886V65.52C49.2525 65.304 48.9585 65.136 48.6225 65.016C48.2865 64.884 47.9325 64.818 47.5605 64.818C46.8645 64.818 46.2705 65.046 45.7785 65.502C45.2985 65.958 45.0585 66.516 45.0585 67.176ZM57.0565 62.478V67.95C57.0565 68.466 57.2125 68.886 57.5245 69.21C57.8485 69.522 58.2685 69.678 58.7845 69.678C59.1565 69.678 59.4865 69.612 59.7745 69.48C60.0625 69.348 60.3025 69.162 60.4945 68.922V62.478H63.4105V72H60.4945V71.352C60.1465 71.616 59.7505 71.82 59.3065 71.964C58.8745 72.108 58.4185 72.18 57.9385 72.18C56.8225 72.18 55.9105 71.82 55.2025 71.1C54.4945 70.38 54.1405 69.462 54.1405 68.346V62.478H57.0565ZM68.1324 58.77V72H65.2164V59.4L68.1324 58.77ZM72.9693 72.162C71.9613 72.162 71.1333 71.886 70.4853 71.334C69.8373 70.782 69.5133 70.074 69.5133 69.21C69.5133 68.31 69.8553 67.608 70.5393 67.104C71.2353 66.6 72.2013 66.348 73.4373 66.348C73.8093 66.348 74.1753 66.372 74.5353 66.42C74.8953 66.468 75.2493 66.534 75.5973 66.618V66.15C75.5973 65.67 75.4413 65.316 75.1293 65.088C74.8293 64.848 74.3793 64.728 73.7793 64.728C73.4073 64.728 72.9873 64.788 72.5193 64.908C72.0513 65.028 71.5113 65.22 70.8993 65.484L69.8553 63.342C70.6233 62.994 71.3733 62.736 72.1053 62.568C72.8493 62.388 73.5813 62.298 74.3013 62.298C75.6213 62.298 76.6473 62.616 77.3793 63.252C78.1113 63.876 78.4773 64.758 78.4773 65.898V72H75.5973V71.424C75.2133 71.688 74.8053 71.88 74.3733 72C73.9533 72.108 73.4853 72.162 72.9693 72.162ZM72.2853 69.156C72.2853 69.456 72.4173 69.69 72.6813 69.858C72.9453 70.026 73.3113 70.11 73.7793 70.11C74.1273 70.11 74.4513 70.074 74.7513 70.002C75.0633 69.93 75.3453 69.816 75.5973 69.66V68.436C75.3213 68.364 75.0393 68.31 74.7513 68.274C74.4633 68.238 74.1693 68.22 73.8693 68.22C73.3653 68.22 72.9753 68.304 72.6993 68.472C72.4233 68.628 72.2853 68.856 72.2853 69.156ZM81.209 69.102V64.908H79.283V62.478H81.209V60.03L84.125 59.4V62.478H86.789V64.908H84.125V68.526C84.125 68.946 84.215 69.246 84.395 69.426C84.587 69.594 84.917 69.678 85.385 69.678C85.613 69.678 85.829 69.666 86.033 69.642C86.237 69.606 86.459 69.552 86.699 69.48V71.838C86.435 71.922 86.099 71.988 85.691 72.036C85.283 72.096 84.941 72.126 84.665 72.126C83.525 72.126 82.661 71.874 82.073 71.37C81.497 70.854 81.209 70.098 81.209 69.102ZM89.3853 61.596C88.9413 61.596 88.5633 61.44 88.2513 61.128C87.9393 60.816 87.7833 60.438 87.7833 59.994C87.7833 59.55 87.9393 59.172 88.2513 58.86C88.5633 58.548 88.9413 58.392 89.3853 58.392C89.8293 58.392 90.2073 58.548 90.5193 58.86C90.8313 59.172 90.9873 59.55 90.9873 59.994C90.9873 60.438 90.8313 60.816 90.5193 61.128C90.2073 61.44 89.8293 61.596 89.3853 61.596ZM90.8433 62.478V72H87.9273V62.478H90.8433ZM92.2063 67.248C92.2063 66.564 92.3383 65.922 92.6023 65.322C92.8783 64.71 93.2443 64.182 93.7003 63.738C94.1683 63.294 94.7143 62.946 95.3383 62.694C95.9743 62.43 96.6523 62.298 97.3723 62.298C98.0923 62.298 98.7643 62.43 99.3883 62.694C100.024 62.946 100.57 63.294 101.026 63.738C101.494 64.182 101.86 64.71 102.124 65.322C102.4 65.922 102.538 66.564 102.538 67.248C102.538 67.932 102.4 68.58 102.124 69.192C101.86 69.792 101.494 70.314 101.026 70.758C100.57 71.202 100.024 71.55 99.3883 71.802C98.7643 72.054 98.0923 72.18 97.3723 72.18C96.6523 72.18 95.9743 72.054 95.3383 71.802C94.7143 71.55 94.1683 71.202 93.7003 70.758C93.2443 70.314 92.8783 69.792 92.6023 69.192C92.3383 68.58 92.2063 67.932 92.2063 67.248ZM97.3723 69.66C98.0203 69.66 98.5663 69.426 99.0103 68.958C99.4663 68.49 99.6943 67.92 99.6943 67.248C99.6943 66.564 99.4663 65.988 99.0103 65.52C98.5663 65.052 98.0203 64.818 97.3723 64.818C96.7243 64.818 96.1723 65.052 95.7163 65.52C95.2723 65.988 95.0503 66.564 95.0503 67.248C95.0503 67.92 95.2723 68.49 95.7163 68.958C96.1723 69.426 96.7243 69.66 97.3723 69.66ZM103.906 72V62.478H106.822V63.126C107.17 62.862 107.56 62.658 107.992 62.514C108.436 62.37 108.898 62.298 109.378 62.298C110.494 62.298 111.406 62.658 112.114 63.378C112.822 64.098 113.176 65.016 113.176 66.132V72H110.26V66.528C110.26 66.012 110.098 65.598 109.774 65.286C109.462 64.962 109.048 64.8 108.532 64.8C108.16 64.8 107.83 64.866 107.542 64.998C107.254 65.13 107.014 65.316 106.822 65.556V72H103.906Z" fill="white"/>
        <path d="M123.138 129.809C126.145 125.741 130.479 124.914 132.674 125.007C132.94 125.018 133.129 125.252 133.126 125.518C133.102 127.372 133.721 128.277 134.285 128.647C134.538 128.813 134.742 129.118 134.68 129.415C133.635 134.396 137.574 134.992 139.996 134.625C140.18 134.597 140.365 134.667 140.489 134.806C141.554 135.99 142.656 136.076 143.413 135.86C143.762 135.76 144.195 135.93 144.248 136.288C145.065 141.72 141.006 144.785 138.5 146C137.5 146.5 134.003 147.762 130 147C125.997 146.238 123.234 142.668 122.5 141C121.626 139.015 119.898 134.193 123.138 129.809Z" stroke="white" stroke-width="2"/>
        <circle cx="128.38" cy="141.484" r="0.953035" fill="white"/>
        <circle cx="128.38" cy="141.484" r="0.953035" fill="white"/>
        <circle cx="128.38" cy="141.484" r="0.953035" fill="white"/>
        <circle cx="128.38" cy="141.484" r="0.953035" fill="white"/>
        <circle cx="128.38" cy="141.484" r="0.953035" fill="white"/>
        <circle cx="128.38" cy="141.484" r="0.953035" fill="white"/>
        <circle cx="135.29" cy="142.198" r="1.66781" fill="white"/>
        <circle cx="135.29" cy="142.198" r="1.66781" fill="white"/>
        <circle cx="135.29" cy="142.198" r="1.66781" fill="white"/>
        <circle cx="135.29" cy="142.198" r="1.66781" fill="white"/>
        <circle cx="135.29" cy="142.198" r="1.66781" fill="white"/>
        <circle cx="135.29" cy="142.198" r="1.66781" fill="white"/>
        <circle cx="126.712" cy="135.051" r="1.66781" fill="#FFF8F8"/>
        <circle cx="126.712" cy="135.051" r="1.66781" fill="white"/>
        <circle cx="126.712" cy="135.051" r="1.66781" fill="white"/>
        <circle cx="126.712" cy="135.051" r="1.66781" fill="white"/>
        <circle cx="126.712" cy="135.051" r="1.66781" fill="white"/>
        <circle cx="126.712" cy="135.051" r="1.66781" fill="white"/>
        <circle cx="130.763" cy="131.953" r="0.953035" fill="white"/>
        <circle cx="130.763" cy="131.953" r="0.953035" fill="white"/>
        <circle cx="130.763" cy="131.953" r="0.953035" fill="white"/>
        <circle cx="130.763" cy="131.953" r="0.953035" fill="white"/>
        <circle cx="130.763" cy="131.953" r="0.953035" fill="white"/>
        <circle cx="130.763" cy="131.953" r="0.953035" fill="white"/>
        <circle cx="132.192" cy="136.718" r="0.953035" fill="white"/>
        <circle cx="132.192" cy="136.718" r="0.953035" fill="white"/>
        <circle cx="132.192" cy="136.718" r="0.953035" fill="white"/>
        <circle cx="132.192" cy="136.718" r="0.953035" fill="white"/>
        <circle cx="132.192" cy="136.718" r="0.953035" fill="white"/>
        <circle cx="132.192" cy="136.718" r="0.953035" fill="white"/>
    </g>
    <defs>
        <linearGradient id="paint0_linear" x1="61.0013" y1="14.5395" x2="14.3645" y2="30.248" gradientUnits="userSpaceOnUse">
            <stop stop-color="#121C28"/>
            <stop offset="1" stop-color="#2A2367"/>
        </linearGradient>
        <linearGradient id="paint1_linear" x1="114.404" y1="20.2994" x2="39.0881" y2="89.0192" gradientUnits="userSpaceOnUse">
            <stop stop-color="#28235B"/>
            <stop offset="1" stop-color="#E6007E"/>
        </linearGradient>
        <linearGradient id="paint2_linear" x1="147.997" y1="55.3693" x2="21.0256" y2="123.426" gradientUnits="userSpaceOnUse">
            <stop stop-color="#FF9500"/>
            <stop offset="1" stop-color="#E6007E"/>
        </linearGradient>
        <linearGradient id="paint3_linear" x1="154.688" y1="138.523" x2="112.34" y2="156.725" gradientUnits="userSpaceOnUse">
            <stop stop-color="#E6332A"/>
            <stop offset="1" stop-color="#FF645B"/>
        </linearGradient>
        <linearGradient id="paint4_linear" x1="132.879" y1="107.08" x2="84.638" y2="147.806" gradientUnits="userSpaceOnUse">
            <stop stop-color="#FF9500"/>
            <stop offset="1" stop-color="#FF645B"/>
        </linearGradient>
        <clipPath id="clip0">
            <rect width="160" height="160" fill="white"/>
        </clipPath>
    </defs>
</svg>
